<svg width="208" height="208" viewBox="0 0 208 208" fill="none" xmlns="http://www.w3.org/2000/svg">
<g clip-path="url(#clip0_11_137)">
<path d="M39 104C39 101.53 39.143 99.086 39.416 96.681L1.846 84.474C0.627773 90.9113 0.0141024 97.4485 0.0130005 104C0.0130005 133.9 12.636 160.862 32.851 179.829L56.069 147.875C45.0819 135.907 38.9811 120.247 39 104ZM169 104C169.024 120.248 162.936 135.91 151.944 147.875L175.162 179.829C185.542 170.116 193.813 158.372 199.462 145.328C205.111 132.283 208.018 118.216 208 104C208 97.331 207.363 90.805 206.167 84.474L168.597 96.681C168.87 99.086 169.013 101.53 169.013 104H169ZM117 40.3C126.098 42.1652 134.693 45.9548 142.206 51.4145C149.72 56.8742 155.979 63.8776 160.563 71.955L198.133 59.748C190.664 43.8881 179.312 30.1705 165.129 19.8669C150.946 9.5632 134.392 3.00701 117 0.80603V40.3ZM47.437 71.955C52.0194 63.876 58.2777 56.8713 65.7915 51.4114C73.3054 45.9515 81.9007 42.1628 91 40.3V0.80603C73.6063 3.00118 57.0491 9.55511 42.8653 19.8594C28.6815 30.1638 17.3308 43.8845 9.867 59.748L47.437 71.955ZM130.923 163.176C122.72 166.92 113.607 169 104 169C94.393 169 85.28 166.92 77.077 163.176L53.859 195.13C68.731 203.333 85.813 208 104 208C122.187 208 139.269 203.333 154.141 195.13L130.923 163.176Z" fill="#CAD2C5"/>
</g>
<defs>
<clipPath id="clip0_11_137">
<rect width="208" height="208" fill="white"/>
</clipPath>
</defs>
</svg>
